<svg width="24" height="22" viewBox="0 0 24 22" fill="none" xmlns="http://www.w3.org/2000/svg">
<g filter="url(#filter0_d_20916_2054)">
<path d="M14.009 17.5587L7.76171 15.8413C4.15843 14.8508 2.3568 14.3556 2.30129 13.2754C2.24577 12.1952 3.99996 11.5129 7.50833 10.1482C8.55288 9.74191 9.0752 9.5387 9.40887 9.12677C9.74253 8.71473 9.8326 8.16159 10.0129 7.05527C10.6183 3.33994 10.9211 1.48222 11.9891 1.31195C13.0572 1.14167 13.9162 2.80096 15.6343 6.11956L18.613 11.8733C20.4117 15.3477 21.3111 17.0849 20.4894 18.0996C19.6677 19.1142 17.7815 18.5957 14.009 17.5587Z" fill="#2BB6FF"/>
<path d="M14.009 17.5587L7.76171 15.8413C4.15843 14.8508 2.3568 14.3556 2.30129 13.2754C2.24577 12.1952 3.99996 11.5129 7.50833 10.1482C8.55288 9.74191 9.0752 9.5387 9.40887 9.12677C9.74253 8.71473 9.8326 8.16159 10.0129 7.05527C10.6183 3.33994 10.9211 1.48222 11.9891 1.31195C13.0572 1.14167 13.9162 2.80096 15.6343 6.11956L18.613 11.8733C20.4117 15.3477 21.3111 17.0849 20.4894 18.0996C19.6677 19.1142 17.7815 18.5957 14.009 17.5587Z" stroke="white" stroke-width="0.6" stroke-linejoin="round"/>
</g>
<defs>
<filter id="filter0_d_20916_2054" x="0" y="0" width="23.0959" height="21.9477" filterUnits="userSpaceOnUse" color-interpolation-filters="sRGB">
<feFlood flood-opacity="0" result="BackgroundImageFix"/>
<feColorMatrix in="SourceAlpha" type="matrix" values="0 0 0 0 0 0 0 0 0 0 0 0 0 0 0 0 0 0 127 0" result="hardAlpha"/>
<feOffset dy="1"/>
<feGaussianBlur stdDeviation="1"/>
<feComposite in2="hardAlpha" operator="out"/>
<feColorMatrix type="matrix" values="0 0 0 0 0 0 0 0 0 0 0 0 0 0 0 0 0 0 0.06 0"/>
<feBlend mode="normal" in2="BackgroundImageFix" result="effect1_dropShadow_20916_2054"/>
<feBlend mode="normal" in="SourceGraphic" in2="effect1_dropShadow_20916_2054" result="shape"/>
</filter>
</defs>
</svg>
