<svg width="22" height="24" viewBox="0 0 22 24" fill="none" xmlns="http://www.w3.org/2000/svg">
<g filter="url(#filter0_d_20916_2076)">
<path d="M12.6183 17.5854L7.00624 14.3476C3.76936 12.4802 2.15092 11.5465 2.36968 10.4873C2.58846 9.42798 4.45803 9.21025 8.1972 8.77471C9.31046 8.64504 9.86715 8.58016 10.2939 8.26572C10.7208 7.95118 10.9475 7.43865 11.401 6.41361C12.9241 2.97114 13.6857 1.24988 14.7621 1.35454C15.8386 1.4592 16.2513 3.28153 17.0766 6.9262L18.5076 13.2452C19.3716 17.061 19.8037 18.9689 18.7526 19.7435C17.7016 20.5181 16.0072 19.5405 12.6183 17.5854Z" fill="#B13BC7"/>
<path d="M12.6183 17.5854L7.00624 14.3476C3.76936 12.4802 2.15092 11.5465 2.36968 10.4873C2.58846 9.42798 4.45803 9.21025 8.1972 8.77471C9.31046 8.64504 9.86715 8.58016 10.2939 8.26572C10.7208 7.95118 10.9475 7.43865 11.401 6.41361C12.9241 2.97114 13.6857 1.24988 14.7621 1.35454C15.8386 1.4592 16.2513 3.28153 17.0766 6.9262L18.5076 13.2452C19.3716 17.061 19.8037 18.9689 18.7526 19.7435C17.7016 20.5181 16.0072 19.5405 12.6183 17.5854Z" stroke="white" stroke-width="0.7" stroke-linejoin="round"/>
</g>
<defs>
<filter id="filter0_d_20916_2076" x="0" y="0" width="21.72" height="23.3595" filterUnits="userSpaceOnUse" color-interpolation-filters="sRGB">
<feFlood flood-opacity="0" result="BackgroundImageFix"/>
<feColorMatrix in="SourceAlpha" type="matrix" values="0 0 0 0 0 0 0 0 0 0 0 0 0 0 0 0 0 0 127 0" result="hardAlpha"/>
<feOffset dy="1"/>
<feGaussianBlur stdDeviation="1"/>
<feComposite in2="hardAlpha" operator="out"/>
<feColorMatrix type="matrix" values="0 0 0 0 0 0 0 0 0 0 0 0 0 0 0 0 0 0 0.06 0"/>
<feBlend mode="normal" in2="BackgroundImageFix" result="effect1_dropShadow_20916_2076"/>
<feBlend mode="normal" in="SourceGraphic" in2="effect1_dropShadow_20916_2076" result="shape"/>
</filter>
</defs>
</svg>
