<svg width="23" height="23" viewBox="0 0 23 23" fill="none" xmlns="http://www.w3.org/2000/svg">
<g filter="url(#filter0_d_20916_2093)">
<path d="M13.6772 2.75061L7.56636 4.90362C4.04178 6.14543 2.27949 6.76632 2.30018 7.84767C2.32087 8.92911 4.11875 9.48619 7.71451 10.6004C8.78508 10.9322 9.32042 11.0981 9.68226 11.4855C10.0441 11.873 10.1729 12.4185 10.4307 13.5093C11.2962 17.1728 11.729 19.0046 12.8064 19.0993C13.8839 19.1939 14.6239 17.4782 16.104 14.0469L18.6701 8.09771C20.2197 4.50524 20.9945 2.70901 20.1034 1.75472C19.2124 0.800448 17.3673 1.4505 13.6772 2.75061Z" fill="#8E79FF"/>
<path d="M13.6772 2.75061L7.56636 4.90362C4.04178 6.14543 2.27949 6.76632 2.30018 7.84767C2.32087 8.92911 4.11875 9.48619 7.71451 10.6004C8.78508 10.9322 9.32042 11.0981 9.68226 11.4855C10.0441 11.873 10.1729 12.4185 10.4307 13.5093C11.2962 17.1728 11.729 19.0046 12.8064 19.0993C13.8839 19.1939 14.6239 17.4782 16.104 14.0469L18.6701 8.09771C20.2197 4.50524 20.9945 2.70901 20.1034 1.75472C19.2124 0.800448 17.3673 1.4505 13.6772 2.75061Z" stroke="white" stroke-width="0.6" stroke-linejoin="round"/>
</g>
<defs>
<filter id="filter0_d_20916_2093" x="0" y="0" width="22.78" height="22.403" filterUnits="userSpaceOnUse" color-interpolation-filters="sRGB">
<feFlood flood-opacity="0" result="BackgroundImageFix"/>
<feColorMatrix in="SourceAlpha" type="matrix" values="0 0 0 0 0 0 0 0 0 0 0 0 0 0 0 0 0 0 127 0" result="hardAlpha"/>
<feOffset dy="1"/>
<feGaussianBlur stdDeviation="1"/>
<feComposite in2="hardAlpha" operator="out"/>
<feColorMatrix type="matrix" values="0 0 0 0 0 0 0 0 0 0 0 0 0 0 0 0 0 0 0.06 0"/>
<feBlend mode="normal" in2="BackgroundImageFix" result="effect1_dropShadow_20916_2093"/>
<feBlend mode="normal" in="SourceGraphic" in2="effect1_dropShadow_20916_2093" result="shape"/>
</filter>
</defs>
</svg>
