<svg width="177" height="67" viewBox="0 0 177 67" fill="none" xmlns="http://www.w3.org/2000/svg">
<g filter="url(#filter0_d_20916_2086)">
<g clip-path="url(#clip0_20916_2086)">
<rect width="156.002" height="44.0064" rx="22.0032" transform="matrix(-0.996035 -0.0889571 -0.0889571 0.996035 160.43 20.5658)" fill="#E8E4FF"/>
<path d="M46.1847 38.4802L47.2878 26.1193L49.4891 26.3158L52.4106 34.8884L52.6815 34.9126L57.058 26.9913L59.2762 27.1892L58.173 39.5501L56.5136 39.402L57.4551 28.8529L57.5706 28.8974L53.3552 36.5429L51.3233 36.3616L48.5116 28.0889L48.6501 28.0671L47.7086 38.6162L46.1847 38.4802ZM65.6626 40.5257C64.8724 40.4552 64.1903 40.2578 63.6161 39.9335C63.042 39.6091 62.5658 39.2082 62.1874 38.7307C61.8213 38.2429 61.5557 37.7129 61.3906 37.1406C61.2368 36.5693 61.1856 35.9958 61.2369 35.4201L61.2641 35.1153C61.3155 34.5396 61.4731 33.9847 61.737 33.4508C62.0018 32.9055 62.3627 32.4313 62.8197 32.0284C63.2777 31.6141 63.8174 31.3039 64.4388 31.0976C65.0613 30.8801 65.7564 30.8056 66.524 30.8741C67.2916 30.9426 67.9625 31.139 68.5366 31.4633C69.1117 31.7764 69.5879 32.1773 69.9653 32.6661C70.3437 33.1436 70.6149 33.6742 70.779 34.2577C70.9442 34.83 71.001 35.404 70.9496 35.9797L70.9224 36.2845C70.8711 36.8602 70.7134 37.4151 70.4496 37.9491C70.197 38.4841 69.8418 38.9587 69.3838 39.373C68.9381 39.7769 68.4041 40.0877 67.7816 40.3052C67.1591 40.5227 66.4528 40.5962 65.6626 40.5257ZM65.7926 39.0695C66.4699 39.13 67.0587 39.0346 67.559 38.7834C68.0716 38.5219 68.4747 38.1483 68.7684 37.6625C69.0734 37.1777 69.2541 36.6192 69.3105 35.987C69.3679 35.3436 69.2895 34.7563 69.0752 34.2251C68.8609 33.694 68.5241 33.26 68.0649 32.9232C67.617 32.5874 67.06 32.3897 66.394 32.3303C65.7393 32.2719 65.1561 32.3677 64.6445 32.6179C64.1329 32.8681 63.7246 33.2356 63.4197 33.7204C63.1147 34.2052 62.9335 34.7693 62.8761 35.4128C62.8197 36.0449 62.893 36.6261 63.096 37.1562C63.3103 37.6874 63.6409 38.1265 64.0878 38.4736C64.547 38.8104 65.1153 39.0091 65.7926 39.0695ZM77.715 41.6014C76.9699 41.5349 76.3185 41.3117 75.7607 40.932C75.2142 40.5532 74.7994 40.0383 74.5161 39.3872C74.2339 38.7249 74.1151 37.9519 74.1599 37.0684L74.6001 37.1077L74.254 40.9853L72.9672 40.8704L74.0703 28.5095L75.6959 28.6546L75.1594 34.6657L74.4734 35.8504C74.6062 34.8724 74.8752 34.0885 75.2806 33.4989C75.6859 32.9093 76.1839 32.4929 76.7745 32.2497C77.3775 31.9963 78.0232 31.9004 78.7118 31.9618C79.3553 32.0192 79.9312 32.1958 80.4396 32.4915C80.949 32.7759 81.3764 33.1497 81.722 33.6129C82.0685 34.0649 82.3182 34.5821 82.471 35.1647C82.6248 35.7359 82.673 36.3433 82.6156 36.9867L82.5884 37.2915C82.531 37.935 82.3698 38.5293 82.105 39.0746C81.8514 39.6209 81.5074 40.0965 81.073 40.5015C80.6397 40.8952 80.1353 41.1916 79.56 41.3905C78.996 41.5905 78.381 41.6608 77.715 41.6014ZM77.6557 40.1624C78.2652 40.2168 78.8089 40.1174 79.2866 39.8642C79.7644 39.611 80.1501 39.2415 80.4437 38.7557C80.7384 38.2586 80.916 37.6714 80.9764 36.994C81.0369 36.3167 80.96 35.7125 80.7457 35.1814C80.5427 34.6512 80.2275 34.2305 79.8001 33.9193C79.3738 33.5968 78.8614 33.4088 78.2632 33.3554C77.7213 33.3071 77.2079 33.3864 76.7229 33.5935C76.2389 33.7892 75.8352 34.1059 75.5116 34.5436C75.2004 34.9709 75.0161 35.5063 74.9587 36.1498L74.8892 36.9287C74.8337 37.5495 74.9275 38.0927 75.1704 38.5581C75.4133 39.0236 75.7556 39.3955 76.1973 39.6738C76.639 39.9522 77.1251 40.115 77.6557 40.1624ZM85.0817 41.9516L85.8887 32.9095L87.5142 33.0546L86.7072 42.0967L85.0817 41.9516ZM84.3854 34.0725L84.5002 32.7856L87.5142 33.0546L87.3994 34.3415L84.3854 34.0725ZM86.4758 31.4941C86.1146 31.4619 85.8522 31.3418 85.6887 31.1337C85.5365 30.9267 85.4735 30.6765 85.4997 30.383C85.5259 30.0895 85.6323 29.8543 85.8187 29.6775C86.0165 29.5017 86.2959 29.43 86.6572 29.4622C87.0184 29.4944 87.2751 29.6141 87.4273 29.8211C87.5908 30.0291 87.6595 30.2799 87.6333 30.5734C87.6071 30.8669 87.4951 31.1015 87.2974 31.2773C87.1109 31.4541 86.8371 31.5264 86.4758 31.4941ZM89.9518 42.3862L91.055 30.0254L92.6805 30.1705L91.5774 42.5313L89.9518 42.3862ZM89.6871 31.2004L89.802 29.9136L92.6805 30.1705L92.5657 31.4573L89.6871 31.2004ZM98.5118 43.4574C97.7216 43.3869 97.0507 43.1905 96.4992 42.8682C95.9476 42.5459 95.5109 42.1485 95.189 41.676C94.868 41.1922 94.6419 40.6657 94.5107 40.0964C94.3907 39.5282 94.3564 38.9562 94.4078 38.3805L94.435 38.0757C94.4874 37.4887 94.623 36.9262 94.8416 36.3882C95.0716 35.8512 95.3869 35.3786 95.7874 34.9706C96.1889 34.5513 96.6778 34.2366 97.2542 34.0263C97.8428 33.8057 98.5152 33.7292 99.2715 33.7967C100.254 33.8844 101.042 34.1709 101.636 34.6562C102.242 35.1313 102.667 35.7155 102.913 36.4087C103.169 37.103 103.264 37.8282 103.196 38.5846L103.131 39.3127L95.1054 38.5964L95.2142 37.3772L102.055 37.9877L101.624 38.6149C101.681 37.9714 101.629 37.4092 101.467 36.9283C101.306 36.436 101.034 36.0419 100.651 35.746C100.268 35.4501 99.7655 35.2745 99.1446 35.2191C98.5012 35.1616 97.9519 35.2605 97.4967 35.5157C97.0528 35.772 96.701 36.1445 96.4412 36.6333C96.1927 37.1232 96.0387 37.7011 95.9792 38.3671C95.9218 39.0106 95.9715 39.601 96.1284 40.1384C96.2975 40.6655 96.5886 41.1011 97.0017 41.4452C97.4157 41.778 97.9614 41.9746 98.6387 42.0351C99.3499 42.0985 99.9397 41.9919 100.408 41.7151C100.888 41.4393 101.192 41.0966 101.319 40.687L102.843 40.823C102.664 41.4328 102.367 41.9468 101.954 42.3651C101.542 42.7834 101.042 43.0859 100.457 43.2726C99.8713 43.4593 99.2229 43.5209 98.5118 43.4574ZM107.832 43.982L113.389 32.0186L116.2 32.2695L119.685 45.0399L117.975 44.8872L114.833 33.2398L115.61 33.7187L113.611 33.5404L114.511 33.2111L109.492 44.1301L107.832 43.982ZM110.82 40.528L111.512 39.0878L116.846 39.5638L117.272 41.1037L110.82 40.528ZM121.413 48.6075L122.522 36.1789L123.809 36.2938L123.46 40.2052L123.158 40.1442C123.301 39.1784 123.575 38.4063 123.979 37.828C124.396 37.2394 124.905 36.824 125.507 36.5819C126.109 36.3398 126.748 36.2489 127.426 36.3094C128.08 36.3678 128.662 36.5449 129.17 36.8406C129.69 37.1373 130.123 37.5172 130.468 37.9804C130.814 38.4437 131.063 38.9665 131.216 39.5491C131.368 40.1317 131.417 40.739 131.36 41.3712L131.333 41.676C131.277 42.3081 131.116 42.8968 130.851 43.4421C130.586 43.9874 130.237 44.4569 129.804 44.8506C129.382 45.2453 128.889 45.5426 128.325 45.7426C127.772 45.9436 127.174 46.0154 126.53 45.958C125.887 45.9006 125.284 45.7045 124.722 45.3699C124.161 45.0353 123.716 44.5348 123.389 43.8684C123.061 43.202 122.915 42.3527 122.95 41.3204L123.575 42.7415L123.038 48.7526L121.413 48.6075ZM126.403 44.513C127.013 44.5674 127.556 44.4736 128.033 44.2317C128.51 43.9785 128.896 43.609 129.19 43.1232C129.485 42.6261 129.662 42.0445 129.721 41.3785C129.782 40.7012 129.71 40.0975 129.507 39.5673C129.304 39.0372 128.99 38.6108 128.563 38.2883C128.138 37.9545 127.62 37.7604 127.011 37.706C126.469 37.6577 125.956 37.737 125.471 37.944C124.987 38.1398 124.583 38.4565 124.259 38.8941C123.948 39.3215 123.764 39.8569 123.706 40.5003L123.637 41.2792C123.581 41.9001 123.675 42.4433 123.918 42.9087C124.161 43.3741 124.503 43.746 124.945 44.0244C125.387 44.3028 125.873 44.4656 126.403 44.513ZM133.087 49.6494L134.196 37.2208L135.483 37.3357L135.134 41.2471L134.832 41.1861C134.975 40.2203 135.249 39.4482 135.653 38.8699C136.07 38.2813 136.579 37.8659 137.181 37.6238C137.783 37.3816 138.423 37.2908 139.1 37.3513C139.755 37.4097 140.336 37.5868 140.845 37.8825C141.364 38.1792 141.797 38.5591 142.142 39.0223C142.488 39.4856 142.737 40.0084 142.89 40.591C143.043 41.1736 143.091 41.7809 143.035 42.4131L143.007 42.7179C142.951 43.35 142.79 43.9387 142.525 44.484C142.261 45.0293 141.911 45.4988 141.478 45.8925C141.056 46.2872 140.563 46.5845 139.999 46.7845C139.446 46.9855 138.848 47.0573 138.205 46.9999C137.561 46.9425 136.959 46.7464 136.397 46.4118C135.835 46.0772 135.39 45.5767 135.063 44.9103C134.736 44.2439 134.59 43.3946 134.625 42.3623L135.249 43.7834L134.712 49.7945L133.087 49.6494ZM138.078 45.5549C138.687 45.6093 139.23 45.5155 139.707 45.2736C140.185 45.0204 140.571 44.6509 140.864 44.1651C141.159 43.668 141.336 43.0864 141.395 42.4204C141.456 41.7431 141.385 41.1393 141.182 40.6092C140.979 40.0791 140.664 39.6527 140.237 39.3302C139.812 38.9964 139.295 38.8023 138.685 38.7479C138.143 38.6996 137.63 38.7789 137.145 38.9859C136.661 39.1817 136.257 39.4984 135.934 39.936C135.622 40.3634 135.438 40.8988 135.381 41.5422L135.311 42.3211C135.256 42.942 135.349 43.4852 135.592 43.9506C135.835 44.416 136.178 44.7879 136.619 45.0663C137.061 45.3447 137.547 45.5075 138.078 45.5549Z" fill="#8E79FF"/>
<path d="M28.9799 22.5501L26.4898 22.3278C24.5334 22.1531 23.5552 22.0657 22.8931 22.6193C22.2311 23.1728 22.1437 24.151 21.9691 26.1074L21.228 34.4077C21.0533 36.3641 20.966 37.3423 21.5195 38.0044C22.073 38.6664 23.0512 38.7537 25.0076 38.9284L27.4977 39.1507C29.4541 39.3254 30.4323 39.4127 31.0944 38.8592C31.7564 38.3057 31.8437 37.3275 32.0184 35.3711L32.7595 27.0708C32.9341 25.1144 33.0215 24.1362 32.468 23.4741C31.9144 22.8121 30.9362 22.7247 28.9799 22.5501Z" stroke="#8E79FF" stroke-width="1.25" stroke-linecap="round" stroke-linejoin="round"/>
<path d="M29.3949 22.5871L26.0747 22.2907L26.4156 23.1578L28.9057 23.3801L29.3949 22.5871Z" stroke="#8E79FF" stroke-width="1.25" stroke-linecap="round" stroke-linejoin="round"/>
</g>
<rect x="-0.325498" y="0.272124" width="155.402" height="43.4064" rx="21.7032" transform="matrix(-0.996035 -0.0889571 -0.0889571 0.996035 159.804 20.5379)" stroke="#8E79FF" stroke-width="0.6"/>
</g>
<g filter="url(#filter1_d_20916_2086)">
<path d="M166.699 10.2447L160.588 12.3977C157.063 13.6395 155.301 14.2604 155.322 15.3418C155.342 16.4232 157.14 16.9803 160.736 18.0945C161.807 18.4263 162.342 18.5922 162.704 18.9796C163.066 19.3671 163.194 19.9126 163.452 21.0034C164.318 24.6669 164.751 26.4987 165.828 26.5933C166.905 26.688 167.645 24.9723 169.125 21.541L171.692 15.5918C173.241 11.9993 174.016 10.2031 173.125 9.24881C172.234 8.29453 170.389 8.94459 166.699 10.2447Z" fill="#8E79FF"/>
<path d="M166.699 10.2447L160.588 12.3977C157.063 13.6395 155.301 14.2604 155.322 15.3418C155.342 16.4232 157.14 16.9803 160.736 18.0945C161.807 18.4263 162.342 18.5922 162.704 18.9796C163.066 19.3671 163.194 19.9126 163.452 21.0034C164.318 24.6669 164.751 26.4987 165.828 26.5933C166.905 26.688 167.645 24.9723 169.125 21.541L171.692 15.5918C173.241 11.9993 174.016 10.2031 173.125 9.24881C172.234 8.29453 170.389 8.94459 166.699 10.2447Z" stroke="white" stroke-width="0.6" stroke-linejoin="round"/>
</g>
<defs>
<filter id="filter0_d_20916_2086" x="-1.86874" y="4.6883" width="165.298" height="63.7094" filterUnits="userSpaceOnUse" color-interpolation-filters="sRGB">
<feFlood flood-opacity="0" result="BackgroundImageFix"/>
<feColorMatrix in="SourceAlpha" type="matrix" values="0 0 0 0 0 0 0 0 0 0 0 0 0 0 0 0 0 0 127 0" result="hardAlpha"/>
<feOffset dy="1"/>
<feGaussianBlur stdDeviation="1.5"/>
<feComposite in2="hardAlpha" operator="out"/>
<feColorMatrix type="matrix" values="0 0 0 0 0 0 0 0 0 0 0 0 0 0 0 0 0 0 0.04 0"/>
<feBlend mode="normal" in2="BackgroundImageFix" result="effect1_dropShadow_20916_2086"/>
<feBlend mode="normal" in="SourceGraphic" in2="effect1_dropShadow_20916_2086" result="shape"/>
</filter>
<filter id="filter1_d_20916_2086" x="153.021" y="7.49408" width="22.78" height="22.403" filterUnits="userSpaceOnUse" color-interpolation-filters="sRGB">
<feFlood flood-opacity="0" result="BackgroundImageFix"/>
<feColorMatrix in="SourceAlpha" type="matrix" values="0 0 0 0 0 0 0 0 0 0 0 0 0 0 0 0 0 0 127 0" result="hardAlpha"/>
<feOffset dy="1"/>
<feGaussianBlur stdDeviation="1"/>
<feComposite in2="hardAlpha" operator="out"/>
<feColorMatrix type="matrix" values="0 0 0 0 0 0 0 0 0 0 0 0 0 0 0 0 0 0 0.06 0"/>
<feBlend mode="normal" in2="BackgroundImageFix" result="effect1_dropShadow_20916_2086"/>
<feBlend mode="normal" in="SourceGraphic" in2="effect1_dropShadow_20916_2086" result="shape"/>
</filter>
<clipPath id="clip0_20916_2086">
<rect width="156.002" height="44.0064" rx="22.0032" transform="matrix(-0.996035 -0.0889571 -0.0889571 0.996035 160.43 20.5658)" fill="white"/>
</clipPath>
</defs>
</svg>
