<svg width="138" height="81" viewBox="0 0 138 81" fill="none" xmlns="http://www.w3.org/2000/svg">
<g filter="url(#filter0_d_20916_2068)">
<rect x="9.28317" width="115" height="44" rx="22" transform="rotate(8.61131 9.28317 0)" fill="#FCECFF" shape-rendering="crispEdges"/>
<rect x="9.49292" y="0.284614" width="114.5" height="43.5" rx="21.75" transform="rotate(8.61131 9.49292 0.284614)" stroke="#B13BC7" stroke-width="0.5" shape-rendering="crispEdges"/>
<path d="M27.2016 21.9301L37.0888 23.4274C38.937 23.7073 39.861 23.8473 40.4892 24.3489C40.9007 24.6775 41.2185 25.1086 41.4105 25.599C41.7036 26.3475 41.5637 27.2716 41.2838 29.1197C41.0039 30.9679 40.864 31.8919 40.3624 32.5201C40.0338 32.9316 39.6026 33.2494 39.1122 33.4414C38.3637 33.7345 37.4397 33.5946 35.5915 33.3147L35.2023 33.2558C34.5231 33.1529 34.1835 33.1015 33.8765 32.9828C33.4654 32.8239 33.0945 32.5764 32.79 32.2579C32.5624 32.02 32.3845 31.7262 32.0288 31.1386C31.7453 30.6704 31.6036 30.4363 31.4189 30.3129C31.1716 30.1477 30.8637 30.1011 30.5786 30.1857C30.3657 30.2489 30.161 30.4305 29.7516 30.7938C29.2378 31.2497 28.9809 31.4776 28.6931 31.6375C28.3079 31.8515 27.8803 31.9781 27.4407 32.0082C27.1123 32.0306 26.7727 31.9792 26.0935 31.8764L25.7043 31.8174C23.8561 31.5375 22.932 31.3976 22.3039 30.896C21.8924 30.5674 21.5747 30.1362 21.3826 29.6458C21.0895 28.8973 21.2294 27.9733 21.5093 26.1251C21.7892 24.277 21.9291 23.3529 22.4307 22.7248C22.7594 22.3132 23.1905 21.9955 23.6808 21.8035C24.4293 21.5103 25.3534 21.6503 27.2016 21.9301Z" stroke="#B13BC7" stroke-width="1.5" stroke-linecap="round" stroke-linejoin="round"/>
<path d="M24.7749 24.5969L26.7524 24.8963" stroke="#B13BC7" stroke-width="1.5" stroke-linecap="round" stroke-linejoin="round"/>
<path d="M41.4335 28.131L41.609 26.9726C41.7817 25.8319 41.8681 25.2616 41.7971 24.7072C41.758 24.4026 41.6841 24.1036 41.5766 23.8159C41.3811 23.2923 41.0389 22.8279 40.3545 21.8992C39.67 20.9704 39.3278 20.5061 38.8856 20.1643C38.6426 19.9765 38.3788 19.8173 38.0994 19.6899C37.5909 19.4579 37.0206 19.3715 35.88 19.1988L29.6083 18.249C28.4676 18.0763 27.8973 17.9899 27.3428 18.0609C27.0383 18.0999 26.7392 18.1739 26.4516 18.2813C25.9279 18.4768 25.4636 18.8191 24.5348 19.5035C23.6061 20.1879 23.1417 20.5301 22.7999 20.9724C22.6121 21.2153 22.453 21.4791 22.3255 21.7585C22.0935 22.267 22.0072 22.8373 21.8344 23.978L21.659 25.1364" stroke="#B13BC7" stroke-width="1.5" stroke-linecap="round" stroke-linejoin="round"/>
<path d="M51.0428 34.6432L57.3215 23.0426L60.1117 23.4651L62.8086 36.425L61.111 36.1679L58.6882 24.3499L59.4339 24.8755L57.4505 24.5752L58.3688 24.3016L52.69 34.8927L51.0428 34.6432ZM54.2366 31.3786L55.0153 29.9835L60.3099 30.7853L60.6406 32.3484L54.2366 31.3786ZM65.0586 36.7657L66.9269 24.4284L68.5741 24.6779L66.7058 37.0152L65.0586 36.7657ZM72.6392 37.9137L69.3988 31.835L71.3318 32.1277L74.6394 38.2166L72.6392 37.9137ZM66.7559 32.4836L66.9773 31.0213L70.2718 31.5202C70.7872 31.5982 71.246 31.5588 71.648 31.4019C72.05 31.245 72.3799 30.9969 72.6376 30.6577C72.897 30.3073 73.0632 29.8911 73.1361 29.4093C73.2091 28.9274 73.1727 28.4863 73.027 28.086C72.883 27.6745 72.6423 27.3343 72.3047 27.0654C71.9689 26.7853 71.5432 26.6062 71.0278 26.5281L67.7333 26.0292L67.9522 24.5837L70.9441 25.0368C71.8406 25.1725 72.6046 25.4258 73.2362 25.7965C73.8678 26.1673 74.3261 26.6608 74.611 27.2771C74.896 27.8933 74.9714 28.6441 74.8373 29.5293L74.7966 29.7983C74.6626 30.6835 74.3626 31.3774 73.8968 31.88C73.4421 32.3843 72.8583 32.72 72.1452 32.8871C71.4434 33.0559 70.6442 33.0725 69.7478 32.9367L66.7559 32.4836ZM75.3135 39.3504L80.8806 25.7506L82.3933 25.9797L76.8263 39.5794L75.3135 39.3504ZM85.4462 39.8532L83.0518 26.9391L84.7495 27.1962L86.8697 38.9684L86.124 38.4428L88.141 38.7482L87.2227 39.0218L92.4309 28.3595L94.0781 28.6089L88.27 40.2808L85.4462 39.8532ZM94.506 41.2252L96.3744 28.8879L98.0216 29.1373L96.1533 41.4747L94.506 41.2252ZM102.087 42.3732L98.8463 36.2945L100.779 36.5872L104.087 42.6761L102.087 42.3732ZM96.2033 36.9431L96.4248 35.4807L99.7192 35.9796C100.235 36.0577 100.693 36.0183 101.095 35.8614C101.497 35.7045 101.827 35.4564 102.085 35.1172C102.344 34.7667 102.511 34.3506 102.584 33.8687C102.657 33.3869 102.62 32.9458 102.474 32.5455C102.33 32.1339 102.09 31.7937 101.752 31.5248C101.416 31.2447 100.991 31.0656 100.475 30.9876L97.1808 30.4887L97.3997 29.0431L100.392 29.4962C101.288 29.632 102.052 29.8852 102.684 30.256C103.315 30.6267 103.774 31.1202 104.058 31.7365C104.343 32.3528 104.419 33.1036 104.285 33.9888L104.244 34.2577C104.11 35.143 103.81 35.8369 103.344 36.3395C102.89 36.8438 102.306 37.1794 101.593 37.3466C100.891 37.5154 100.092 37.5319 99.1952 37.3962L96.2033 36.9431Z" fill="#B13BC7"/>
</g>
<g filter="url(#filter1_d_20916_2068)">
<path d="M119.535 74.7199L113.923 71.4822C110.686 69.6147 109.068 68.681 109.286 67.6218C109.505 66.5625 111.375 66.3448 115.114 65.9092C116.227 65.7796 116.784 65.7147 117.211 65.4003C117.638 65.0857 117.864 64.5732 118.318 63.5481C119.841 60.1057 120.602 58.3844 121.679 58.4891C122.755 58.5937 123.168 60.4161 123.993 64.0607L125.424 70.3798C126.288 74.1956 126.72 76.1035 125.669 76.8781C124.618 77.6526 122.924 76.6751 119.535 74.7199Z" fill="#B13BC7"/>
<path d="M119.535 74.7199L113.923 71.4822C110.686 69.6147 109.068 68.681 109.286 67.6218C109.505 66.5625 111.375 66.3448 115.114 65.9092C116.227 65.7796 116.784 65.7147 117.211 65.4003C117.638 65.0857 117.864 64.5732 118.318 63.5481C119.841 60.1057 120.602 58.3844 121.679 58.4891C122.755 58.5937 123.168 60.4161 123.993 64.0607L125.424 70.3798C126.288 74.1956 126.72 76.1035 125.669 76.8781C124.618 77.6526 122.924 76.6751 119.535 74.7199Z" stroke="white" stroke-width="0.7" stroke-linejoin="round"/>
</g>
<defs>
<filter id="filter0_d_20916_2068" x="-0.304966" y="-2" width="126.292" height="66.723" filterUnits="userSpaceOnUse" color-interpolation-filters="sRGB">
<feFlood flood-opacity="0" result="BackgroundImageFix"/>
<feColorMatrix in="SourceAlpha" type="matrix" values="0 0 0 0 0 0 0 0 0 0 0 0 0 0 0 0 0 0 127 0" result="hardAlpha"/>
<feOffset dy="1"/>
<feGaussianBlur stdDeviation="1.5"/>
<feComposite in2="hardAlpha" operator="out"/>
<feColorMatrix type="matrix" values="0 0 0 0 0 0 0 0 0 0 0 0 0 0 0 0 0 0 0.04 0"/>
<feBlend mode="normal" in2="BackgroundImageFix" result="effect1_dropShadow_20916_2068"/>
<feBlend mode="normal" in="SourceGraphic" in2="effect1_dropShadow_20916_2068" result="shape"/>
</filter>
<filter id="filter1_d_20916_2068" x="106.917" y="57.1345" width="21.72" height="23.3595" filterUnits="userSpaceOnUse" color-interpolation-filters="sRGB">
<feFlood flood-opacity="0" result="BackgroundImageFix"/>
<feColorMatrix in="SourceAlpha" type="matrix" values="0 0 0 0 0 0 0 0 0 0 0 0 0 0 0 0 0 0 127 0" result="hardAlpha"/>
<feOffset dy="1"/>
<feGaussianBlur stdDeviation="1"/>
<feComposite in2="hardAlpha" operator="out"/>
<feColorMatrix type="matrix" values="0 0 0 0 0 0 0 0 0 0 0 0 0 0 0 0 0 0 0.06 0"/>
<feBlend mode="normal" in2="BackgroundImageFix" result="effect1_dropShadow_20916_2068"/>
<feBlend mode="normal" in="SourceGraphic" in2="effect1_dropShadow_20916_2068" result="shape"/>
</filter>
</defs>
</svg>
