<svg width="186" height="79" viewBox="0 0 186 79" fill="none" xmlns="http://www.w3.org/2000/svg">
<g filter="url(#filter0_d_20916_2077)">
<rect x="19.9992" y="28.7193" width="161.001" height="44" rx="22" transform="rotate(-4.37365 19.9992 28.7193)" fill="#FFEBE9"/>
<rect x="20.3212" y="28.9956" width="160.401" height="43.4" rx="21.7" transform="rotate(-4.37365 20.3212 28.9956)" stroke="#F3785D" stroke-width="0.6"/>
<path d="M41.3896 48.3115C41.2699 46.7447 41.21 45.9613 41.6596 45.4374C42.1091 44.9135 42.8925 44.8536 44.4593 44.7339L46.1211 44.6069C47.6879 44.4872 48.4712 44.4273 48.9952 44.8768C49.5191 45.3264 49.579 46.1098 49.6987 47.6765L49.8257 49.3384C49.9454 50.9051 50.0053 51.6885 49.5558 52.2125C49.1062 52.7364 48.3228 52.7963 46.7561 52.916L45.0942 53.043C43.5275 53.1627 42.7441 53.2226 42.2201 52.773C41.6962 52.3235 41.6363 51.5401 41.5166 49.9733L41.3896 48.3115Z" stroke="#F3785D" stroke-width="1.25"/>
<path d="M42.382 44.8926C42.382 44.8926 42.8695 43.7361 42.893 42.3471C42.9058 41.5942 42.9122 41.2177 43.1067 40.99C43.3012 40.7623 43.5532 40.718 44.0572 40.6295C44.3234 40.5827 44.629 40.5421 44.9727 40.5158C45.3165 40.4896 45.6246 40.4833 45.8949 40.4891C46.4065 40.5 46.6622 40.5054 46.8891 40.7009C47.1159 40.8965 47.1795 41.2676 47.3065 42.0098C47.5408 43.3791 48.1984 44.4481 48.1984 44.4481" stroke="#F3785D" stroke-width="1.25" stroke-linecap="round" stroke-linejoin="round"/>
<path d="M48.8333 52.7573C48.8333 52.7573 48.3459 53.9138 48.3223 55.3029C48.3096 56.0558 48.3032 56.4322 48.1087 56.6599C47.9141 56.8876 47.6622 56.9319 47.1581 57.0204C46.8919 57.0671 46.5864 57.1078 46.2426 57.1341C45.8989 57.1603 45.5907 57.1666 45.3205 57.1608C44.8089 57.1499 44.5531 57.1444 44.3262 56.949C44.0994 56.7534 44.0359 56.3824 43.9089 55.6401C43.6745 54.2707 43.017 53.2017 43.017 53.2017" stroke="#F3785D" stroke-width="1.25" stroke-linecap="round" stroke-linejoin="round"/>
<path d="M69.8507 53.2952C68.8224 53.3738 67.9337 53.2713 67.1845 52.9876C66.4354 52.7039 65.8458 52.2773 65.4158 51.7078C64.9857 51.1382 64.7418 50.4749 64.6839 49.7178L66.345 49.5907C66.3735 49.9636 66.4981 50.3292 66.7187 50.6874C66.9507 51.0448 67.3078 51.33 67.7901 51.5432C68.2838 51.7555 68.9317 51.831 69.7341 51.7696C70.4799 51.7126 71.0819 51.5586 71.5401 51.3075C71.9974 51.0452 72.3257 50.7303 72.5249 50.3627C72.7232 49.9838 72.8064 49.5853 72.7745 49.1672C72.7356 48.6587 72.4832 48.2574 72.0174 47.9634C71.5508 47.6581 70.8907 47.4983 70.0371 47.484L68.6551 47.4704C67.552 47.4638 66.6503 47.1918 65.9499 46.6543C65.2496 46.1168 64.8627 45.3678 64.7892 44.4073C64.7313 43.6502 64.8615 42.9753 65.1799 42.3826C65.5096 41.789 65.9901 41.309 66.6213 40.9425C67.2517 40.5646 68.0019 40.3424 68.872 40.2759C69.7309 40.2102 70.5001 40.3105 71.1797 40.5768C71.8593 40.8431 72.402 41.2505 72.8077 41.7992C73.2238 42.3357 73.4621 42.9994 73.5226 43.7905L71.8614 43.9175C71.8312 43.522 71.7066 43.1564 71.4877 42.8208C71.2801 42.4843 70.9699 42.2182 70.5571 42.0225C70.1443 41.8267 69.6215 41.753 68.9887 41.8014C68.3785 41.8481 67.8782 41.9943 67.4878 42.2402C67.1087 42.4851 66.8309 42.7905 66.6542 43.1564C66.4881 43.5101 66.4201 43.8847 66.4504 44.2802C66.4849 44.7322 66.6908 45.12 67.0679 45.4435C67.445 45.767 67.9803 45.9307 68.674 45.9345L70.056 45.9481C70.9088 45.9511 71.6515 46.0761 72.2841 46.3233C72.9273 46.5583 73.4313 46.9062 73.7961 47.367C74.1715 47.8157 74.3846 48.3734 74.4356 49.0401C74.4935 49.7973 74.3415 50.4852 73.9797 51.1039C73.6178 51.7226 73.0821 52.2239 72.3727 52.6078C71.6632 52.9917 70.8226 53.2208 69.8507 53.2952ZM77.2594 52.4216L76.5671 43.3701L77.8553 43.2715L78.1522 47.1532L77.9488 47.1688C77.8814 46.2873 77.9374 45.5329 78.1167 44.9054C78.3065 44.2657 78.6205 43.7643 79.0587 43.4011C79.497 43.038 80.0721 42.8292 80.784 42.7748L80.8518 42.7696C81.5637 42.7151 82.1639 42.834 82.6522 43.1263C83.1519 43.4177 83.5385 43.8655 83.8121 44.4698C84.0847 45.0627 84.2548 45.7999 84.3222 46.6813L83.8476 46.7176C83.7802 45.8362 83.8418 45.0813 84.0324 44.4529C84.2222 43.8132 84.5362 43.3118 84.9745 42.9487C85.424 42.5847 86.0047 42.3755 86.7167 42.321L86.7845 42.3158C87.4964 42.2614 88.1022 42.3798 88.6019 42.6713C89.1015 42.9627 89.4882 43.4105 89.7617 44.0147C90.0457 44.6068 90.2214 45.3435 90.2888 46.225L90.6842 51.3949L89.0569 51.5193L88.6343 45.9935C88.5781 45.2589 88.3541 44.7077 87.9623 44.3399C87.5695 43.9607 87.0511 43.7958 86.407 43.8451C85.7403 43.896 85.2199 44.1518 84.846 44.6123C84.4711 45.0616 84.3127 45.6647 84.3706 46.4219L84.7854 51.846L83.1582 51.9705L82.7355 46.4446C82.6794 45.7101 82.4553 45.1589 82.0635 44.791C81.6708 44.4119 81.1523 44.2469 80.5082 44.2962C79.8415 44.3472 79.3211 44.603 78.9472 45.0635C78.5723 45.5127 78.4139 46.1159 78.4718 46.873L78.8866 52.2972L77.2594 52.4216ZM99.1386 50.7482L98.9312 48.0362L98.66 48.0569L98.4202 44.9211C98.3726 44.2995 98.1729 43.8431 97.821 43.5518C97.4804 43.2596 96.9993 43.1372 96.3778 43.1848C96.0275 43.2115 95.6663 43.2449 95.2943 43.2847C94.9222 43.3245 94.5671 43.363 94.229 43.4002C93.8908 43.4375 93.5983 43.4769 93.3515 43.5185L93.2426 42.0947C93.4894 42.0531 93.748 42.0162 94.0184 41.9842C94.2992 41.94 94.5865 41.9066 94.8803 41.8842C95.1732 41.8504 95.4553 41.8231 95.7265 41.8024C96.6531 41.7315 97.4189 41.7866 98.0238 41.9677C98.6278 42.1374 99.0901 42.4601 99.4107 42.9357C99.7312 43.4113 99.9239 44.0729 99.9887 44.9204L100.427 50.6497L99.1386 50.7482ZM96.1905 51.2124C95.5124 51.2643 94.9162 51.1962 94.4017 51.0082C93.8976 50.8081 93.4931 50.498 93.1882 50.0781C92.8946 49.6572 92.724 49.1361 92.6765 48.5145C92.6272 47.8704 92.7274 47.3228 92.9771 46.8718C93.2381 46.4199 93.6372 46.0655 94.1745 45.8084C94.7109 45.5401 95.369 45.3761 96.1487 45.3164L98.6065 45.1284L98.6999 46.3489L96.1743 46.5421C95.5188 46.5922 95.0281 46.7888 94.702 47.132C94.3758 47.4753 94.2318 47.8955 94.2698 48.3927C94.3079 48.8899 94.5137 49.2777 94.8873 49.556C95.261 49.8343 95.7755 49.9484 96.4309 49.8983C96.8152 49.8689 97.1772 49.773 97.5172 49.6106C97.8562 49.4369 98.1263 49.1775 98.3272 48.8325C98.5386 48.4754 98.6331 48.0021 98.6107 47.4128L99.1007 48.0232C99.0935 48.6716 98.9768 49.2261 98.7506 49.6867C98.5348 50.1352 98.2096 50.4897 97.7748 50.7502C97.3514 51.01 96.8233 51.164 96.1905 51.2124ZM103.413 50.4213L102.721 41.3697L104.009 41.2712L104.295 45.0003L104.227 45.0055C104.126 43.6833 104.34 42.6951 104.87 42.0408C105.41 41.3744 106.262 40.9966 107.426 40.9076L107.731 40.8843L107.842 42.342L107.266 42.3861C106.362 42.4552 105.686 42.7513 105.237 43.2744C104.787 43.7862 104.597 44.4941 104.666 45.3981L105.041 50.2968L103.413 50.4213ZM114.065 49.7089C113.387 49.7608 112.792 49.7097 112.28 49.5556C111.779 49.4007 111.376 49.1019 111.069 48.6593C110.773 48.2046 110.594 47.5761 110.533 46.7737L109.866 38.0612L111.426 37.9419L112.108 46.8579C112.145 47.3438 112.304 47.7124 112.584 47.9637C112.876 48.2029 113.264 48.3039 113.75 48.2667L115.343 48.1449L115.455 49.6026L114.065 49.7089ZM108.61 42.1469L108.517 40.9264L114.755 40.4494L114.848 41.6698L108.61 42.1469ZM120.393 49.1226L121.555 40.2362L123.758 40.0676L126.563 48.6507L125.173 48.7571L122.371 40.2078L122.913 40.1664L121.732 49.0202L120.393 49.1226ZM119.562 49.1862L119.464 47.8979L121.345 47.754L121.444 49.0423L119.562 49.1862ZM119.189 49.2147L115.938 40.3589L117.497 40.2396L120.681 49.1006L119.189 49.2147ZM125.512 48.7311L125.413 47.4429L127.295 47.299L127.393 48.5872L125.512 48.7311ZM126.275 48.6728L127.752 39.4553L129.227 39.3425L127.699 48.5639L126.275 48.6728ZM137.526 47.8123L137.318 45.1002L137.047 45.1209L136.807 41.9851C136.76 41.3636 136.56 40.9071 136.208 40.6158C135.867 40.3236 135.386 40.2013 134.765 40.2488C134.414 40.2756 134.053 40.3089 133.681 40.3487C133.309 40.3885 132.954 40.4271 132.616 40.4643C132.278 40.5015 131.985 40.5409 131.738 40.5826L131.629 39.1587C131.876 39.1171 132.135 39.0803 132.405 39.0482C132.686 39.004 132.973 38.9707 133.267 38.9482C133.56 38.9144 133.842 38.8872 134.113 38.8664C135.04 38.7956 135.806 38.8507 136.411 39.0317C137.015 39.2015 137.477 39.5242 137.798 39.9998C138.118 40.4754 138.311 41.137 138.376 41.9845L138.814 47.7137L137.526 47.8123ZM134.577 48.2765C133.899 48.3283 133.303 48.2603 132.789 48.0723C132.285 47.8721 131.88 47.5621 131.575 47.1421C131.282 46.7213 131.111 46.2001 131.063 45.5786C131.014 44.9345 131.114 44.3869 131.364 43.9359C131.625 43.484 132.024 43.1295 132.561 42.8725C133.098 42.6041 133.756 42.4401 134.536 42.3805L136.993 42.1925L137.087 43.4129L134.561 43.6061C133.906 43.6562 133.415 43.8529 133.089 44.1961C132.763 44.5393 132.619 44.9595 132.657 45.4567C132.695 45.9539 132.901 46.3417 133.274 46.62C133.648 46.8983 134.162 47.0124 134.818 46.9623C135.202 46.9329 135.564 46.837 135.904 46.6746C136.243 46.5009 136.513 46.2416 136.714 45.8966C136.925 45.5394 137.02 45.0662 136.998 44.4768L137.488 45.0872C137.48 45.7357 137.364 46.2902 137.137 46.7508C136.922 47.1992 136.596 47.5537 136.162 47.8143C135.738 48.074 135.21 48.2281 134.577 48.2765ZM145.334 47.3174C144.656 47.3692 144.061 47.3181 143.549 47.164C143.048 47.0091 142.645 46.7103 142.338 46.2678C142.042 45.813 141.863 45.1845 141.802 44.3822L141.135 35.6696L142.695 35.5504L143.377 44.4663C143.414 44.9522 143.573 45.3209 143.853 45.5722C144.145 45.8113 144.533 45.9123 145.019 45.8752L146.612 45.7533L146.724 47.2111L145.334 47.3174ZM139.879 39.7553L139.786 38.5349L146.024 38.0578L146.117 39.2782L139.879 39.7553ZM152.856 46.9466C152.077 47.0063 151.388 46.9225 150.791 46.6954C150.205 46.4674 149.709 46.1416 149.301 45.7182C148.893 45.2834 148.572 44.7965 148.337 44.2574C148.114 43.7175 147.981 43.1707 147.939 42.617L147.916 42.3119C147.871 41.7356 147.919 41.1637 148.057 40.5961C148.207 40.0277 148.451 39.5089 148.791 39.0397C149.14 38.5583 149.587 38.1603 150.131 37.8459C150.676 37.5315 151.326 37.3453 152.084 37.2874C152.841 37.2295 153.529 37.3189 154.15 37.5556C154.782 37.7915 155.298 38.1555 155.7 38.6476C156.112 39.1276 156.367 39.7162 156.466 40.4133L154.906 40.5326C154.784 39.9737 154.488 39.5246 154.019 39.1854C153.549 38.8349 152.941 38.6881 152.195 38.7452C151.551 38.7944 151.025 38.9824 150.618 39.309C150.211 39.6357 149.92 40.0615 149.744 40.5864C149.568 41.1114 149.505 41.6959 149.554 42.34C149.602 42.9615 149.753 43.524 150.007 44.0274C150.261 44.5195 150.614 44.9017 151.067 45.1739C151.53 45.434 152.089 45.539 152.745 45.4889C153.253 45.45 153.687 45.3259 154.046 45.1165C154.405 44.9072 154.686 44.6414 154.889 44.319C155.092 43.9966 155.201 43.6415 155.217 43.2539L156.776 43.1346C156.797 43.8491 156.635 44.481 156.29 45.0302C155.957 45.5785 155.491 46.0233 154.892 46.3647C154.303 46.6939 153.625 46.8878 152.856 46.9466ZM159.231 46.1522L158.285 33.7783L159.912 33.6539L160.477 41.0443L160.07 41.0754C160.002 40.1827 160.056 39.4056 160.233 38.7442C160.42 38.0706 160.743 37.5401 161.202 37.1526C161.661 36.7652 162.27 36.5425 163.027 36.4846L163.095 36.4794C164.179 36.3964 165.026 36.6953 165.635 37.3762C166.243 38.0458 166.599 39.0473 166.701 40.3807L167.096 45.5506L165.469 45.6751L165.047 40.1662C164.991 39.4317 164.738 38.877 164.289 38.5021C163.851 38.1265 163.305 37.9637 162.649 38.0138C161.926 38.0691 161.363 38.3566 160.959 38.8762C160.566 39.3837 160.399 40.0272 160.459 40.807L160.858 46.0277L159.231 46.1522Z" fill="#F3785D"/>
</g>
<g filter="url(#filter1_d_20916_2077)">
<path d="M10.2327 22.3726L16.48 24.09C20.0833 25.0805 21.885 25.5758 21.9405 26.6559C21.996 27.7361 20.2418 28.4184 16.7334 29.7831C15.6889 30.1894 15.1666 30.3926 14.8329 30.8045C14.4992 31.2166 14.4092 31.7697 14.2288 32.876C13.6234 36.5914 13.3207 38.4491 12.2526 38.6194C11.1845 38.7896 10.3255 37.1304 8.60747 33.8118L5.62876 28.0581C3.83005 24.5836 2.9307 22.8464 3.75235 21.8317C4.57401 20.8171 6.46025 21.3356 10.2327 22.3726Z" fill="#F3785D"/>
<path d="M10.2327 22.3726L16.48 24.09C20.0833 25.0805 21.885 25.5758 21.9405 26.6559C21.996 27.7361 20.2418 28.4184 16.7334 29.7831C15.6889 30.1894 15.1666 30.3926 14.8329 30.8045C14.4992 31.2166 14.4092 31.7697 14.2288 32.876C13.6234 36.5914 13.3207 38.4491 12.2526 38.6194C11.1845 38.7896 10.3255 37.1304 8.60747 33.8118L5.62876 28.0581C3.83005 24.5836 2.9307 22.8464 3.75235 21.8317C4.57401 20.8171 6.46025 21.3356 10.2327 22.3726Z" stroke="white" stroke-width="0.6" stroke-linejoin="round"/>
</g>
<defs>
<filter id="filter0_d_20916_2077" x="16.9992" y="14.4413" width="169.888" height="62.1499" filterUnits="userSpaceOnUse" color-interpolation-filters="sRGB">
<feFlood flood-opacity="0" result="BackgroundImageFix"/>
<feColorMatrix in="SourceAlpha" type="matrix" values="0 0 0 0 0 0 0 0 0 0 0 0 0 0 0 0 0 0 127 0" result="hardAlpha"/>
<feOffset dy="1"/>
<feGaussianBlur stdDeviation="1.5"/>
<feComposite in2="hardAlpha" operator="out"/>
<feColorMatrix type="matrix" values="0 0 0 0 0 0 0 0 0 0 0 0 0 0 0 0 0 0 0.04 0"/>
<feBlend mode="normal" in2="BackgroundImageFix" result="effect1_dropShadow_20916_2077"/>
<feBlend mode="normal" in="SourceGraphic" in2="effect1_dropShadow_20916_2077" result="shape"/>
</filter>
<filter id="filter1_d_20916_2077" x="1.14588" y="19.9836" width="23.0959" height="21.9477" filterUnits="userSpaceOnUse" color-interpolation-filters="sRGB">
<feFlood flood-opacity="0" result="BackgroundImageFix"/>
<feColorMatrix in="SourceAlpha" type="matrix" values="0 0 0 0 0 0 0 0 0 0 0 0 0 0 0 0 0 0 127 0" result="hardAlpha"/>
<feOffset dy="1"/>
<feGaussianBlur stdDeviation="1"/>
<feComposite in2="hardAlpha" operator="out"/>
<feColorMatrix type="matrix" values="0 0 0 0 0 0 0 0 0 0 0 0 0 0 0 0 0 0 0.06 0"/>
<feBlend mode="normal" in2="BackgroundImageFix" result="effect1_dropShadow_20916_2077"/>
<feBlend mode="normal" in="SourceGraphic" in2="effect1_dropShadow_20916_2077" result="shape"/>
</filter>
</defs>
</svg>
