<svg width="159" height="71" viewBox="0 0 159 71" fill="none" xmlns="http://www.w3.org/2000/svg">
<g filter="url(#filter0_d_20916_2055)">
<rect x="22.5773" y="1.77623" width="136" height="44" rx="22" transform="rotate(6 22.5773 1.77623)" fill="#FFF7E6"/>
<rect x="22.8443" y="2.10594" width="135.4" height="43.4" rx="21.7" transform="rotate(6 22.8443 2.10594)" stroke="#E69B0C" stroke-width="0.6"/>
<path d="M36.2733 25.3367C36.6634 21.6252 36.8585 19.7694 38.1327 18.7376C39.4069 17.7058 41.2626 17.9008 44.9741 18.2909C48.6856 18.681 50.5414 18.876 51.5733 20.1502C52.6051 21.4245 52.41 23.2802 52.0199 26.9917C51.6298 30.7032 51.4348 32.559 50.1606 33.5908C48.8863 34.6226 47.0306 34.4276 43.3191 34.0375C39.6076 33.6474 37.7518 33.4524 36.72 32.1782C35.6882 30.9039 35.8832 29.0482 36.2733 25.3367Z" stroke="#E69B0C" stroke-width="1.25"/>
<path d="M36.5344 22.8503L52.281 24.5054" stroke="#E69B0C" stroke-width="1.25" stroke-linejoin="round"/>
<path d="M44.8889 27.0801L48.204 27.4285" stroke="#E69B0C" stroke-width="1.25" stroke-linecap="round" stroke-linejoin="round"/>
<path d="M44.5406 30.3951L46.1981 30.5693" stroke="#E69B0C" stroke-width="1.25" stroke-linecap="round" stroke-linejoin="round"/>
<path d="M40.5253 20.756L40.5327 20.7568" stroke="#E69B0C" stroke-width="1.66667" stroke-linecap="round" stroke-linejoin="round"/>
<path d="M43.8407 21.1043L43.8482 21.1051" stroke="#E69B0C" stroke-width="1.66667" stroke-linecap="round" stroke-linejoin="round"/>
<path d="M41.9218 23.4167L40.8329 33.7764" stroke="#E69B0C" stroke-width="1.25" stroke-linecap="round" stroke-linejoin="round"/>
<path d="M65.2583 34.4164L63.2248 21.7243L64.9324 21.9038L66.64 33.4677L65.8881 32.9784L67.9 33.1898L66.9782 33.5032L70.4584 22.9974L72.0138 23.1609L68.0817 34.7132L65.2583 34.4164ZM72.6804 35.1965L70.9656 23.0507L72.5717 23.2195L74.096 34.2513L73.2933 33.7567L75.3221 33.9699L74.4172 34.2851L78.1874 23.297L79.8443 23.4711L75.5208 35.495L72.6804 35.1965ZM84.0023 36.6942C83.2133 36.6113 82.5456 36.4043 81.9992 36.0734C81.4528 35.7425 81.0224 35.3383 80.7079 34.8608C80.3946 34.372 80.1768 33.842 80.0545 33.2708C79.9435 32.7007 79.9182 32.1283 79.9786 31.5534L80.0106 31.2491C80.0722 30.663 80.2166 30.1027 80.4437 29.5682C80.6821 29.0348 81.0047 28.5673 81.4116 28.1657C81.8197 27.7527 82.3135 27.4456 82.893 27.2445C83.485 27.0332 84.1586 26.9672 84.9137 27.0466C85.8943 27.1497 86.6777 27.4485 87.2639 27.9432C87.8625 28.4277 88.2791 29.0185 88.5135 29.7155C88.7592 30.4137 88.8424 31.1403 88.763 31.8955L88.6866 32.6225L80.6727 31.7802L80.8007 30.5629L87.631 31.2808L87.1898 31.9011C87.2573 31.2586 87.2139 30.6957 87.0596 30.2122C86.9065 29.7175 86.6407 29.3192 86.2621 29.0173C85.8836 28.7155 85.3844 28.5319 84.7645 28.4668C84.122 28.3993 83.5712 28.4895 83.1121 28.7375C82.6643 28.9868 82.3066 29.3537 82.0392 29.8384C81.783 30.3243 81.6199 30.8997 81.55 31.5647C81.4825 32.2072 81.523 32.7983 81.6713 33.3381C81.8322 33.8679 82.1164 34.308 82.524 34.6585C82.9328 34.9978 83.4753 35.2029 84.1516 35.274C84.8617 35.3486 85.4531 35.2513 85.9258 34.9819C86.4099 34.7137 86.7189 34.3758 86.8529 33.9682L88.3745 34.1281C88.1853 34.735 87.8811 35.2443 87.4618 35.6561C87.0424 36.0679 86.5385 36.3625 85.9501 36.5399C85.3617 36.7174 84.7124 36.7688 84.0023 36.6942ZM95.2843 37.88C94.5404 37.8018 93.8926 37.5685 93.3409 37.18C92.8004 36.7927 92.3937 36.2713 92.1207 35.6159C91.8489 34.9491 91.7423 34.1744 91.8009 33.2917L92.2404 33.3379L91.8335 37.2096L90.5486 37.0745L91.8458 24.7325L93.4689 24.9031L92.838 30.905L92.1335 32.0788C92.2816 31.103 92.563 30.3234 92.9775 29.7403C93.3921 29.1571 93.8966 28.7486 94.4909 28.5147C95.0978 28.2708 95.7449 28.185 96.4325 28.2573C97.0749 28.3248 97.648 28.5104 98.1517 28.814C98.6566 29.1064 99.0781 29.4869 99.4163 29.9555C99.7557 30.4128 99.9972 30.9339 100.141 31.5188C100.286 32.0924 100.324 32.7004 100.257 33.3429L100.225 33.6472C100.157 34.2897 99.9869 34.8814 99.7135 35.4225C99.4514 35.9647 99.1 36.4349 98.6593 36.833C98.2198 37.2199 97.7108 37.5082 97.1325 37.6982C96.5654 37.8893 95.9493 37.9499 95.2843 37.88ZM95.2476 36.4402C95.8563 36.5042 96.4014 36.4134 96.8831 36.1677C97.3647 35.922 97.7562 35.5586 98.0575 35.0775C98.3599 34.5851 98.5467 34.0007 98.6178 33.3245C98.6889 32.6482 98.6214 32.0428 98.4155 31.5084C98.2209 30.9751 97.9123 30.5495 97.4899 30.2316C97.0687 29.9024 96.5594 29.7065 95.962 29.6437C95.421 29.5868 94.9064 29.6581 94.4182 29.8575C93.9312 30.0456 93.5225 30.3559 93.1922 30.7884C92.8743 31.2108 92.6815 31.7433 92.614 32.3857L92.5323 33.1635C92.4671 33.7834 92.5523 34.3279 92.7879 34.7971C93.0235 35.2663 93.3599 35.6436 93.7971 35.9288C94.2344 36.2141 94.7179 36.3846 95.2476 36.4402ZM104.97 38.5903L110.714 26.7156L113.52 27.0106L116.805 39.8342L115.097 39.6547L112.139 27.9594L112.907 28.4504L110.912 28.2407L111.817 27.9256L106.627 38.7644L104.97 38.5903ZM108.012 35.1836L108.726 33.7544L114.052 34.3142L114.453 35.8606L108.012 35.1836ZM118.476 43.4285L119.78 31.0189L121.065 31.1539L120.655 35.0594L120.354 34.9936C120.512 34.0302 120.798 33.2626 121.211 32.6906C121.637 32.1086 122.153 31.7013 122.758 31.4687C123.364 31.236 124.005 31.1553 124.681 31.2263C125.335 31.2951 125.914 31.4812 126.417 31.7849C126.932 32.0897 127.359 32.4764 127.697 32.945C128.035 33.4136 128.276 33.9403 128.42 34.5252C128.564 35.1101 128.602 35.7181 128.536 36.3493L128.504 36.6536C128.438 37.2848 128.268 37.871 127.994 38.412C127.721 38.9531 127.365 39.417 126.925 39.8039C126.497 40.1919 125.999 40.4815 125.432 40.6726C124.876 40.8649 124.277 40.9272 123.635 40.8597C122.992 40.7922 122.393 40.5867 121.836 40.2433C121.28 39.9 120.843 39.3925 120.526 38.7211C120.209 38.0496 120.077 37.1981 120.128 36.1665L120.73 37.5972L120.099 43.5991L118.476 43.4285ZM123.53 39.4129C124.139 39.4768 124.684 39.3916 125.164 39.1572C125.646 38.9116 126.037 38.5482 126.338 38.067C126.641 37.5746 126.827 36.9959 126.897 36.3309C126.968 35.6546 126.906 35.0499 126.712 34.5166C126.517 33.9833 126.209 33.5521 125.788 33.2229C125.368 32.8825 124.853 32.6803 124.245 32.6163C123.704 32.5594 123.189 32.6307 122.701 32.8301C122.214 33.0182 121.805 33.3286 121.475 33.7611C121.157 34.1835 120.964 34.7159 120.897 35.3584L120.815 36.1361C120.75 36.756 120.835 37.3006 121.071 37.7698C121.306 38.239 121.643 38.6162 122.08 38.9015C122.517 39.1867 123.001 39.3572 123.53 39.4129ZM130.132 44.6537L131.437 32.244L132.722 32.3791L132.311 36.2846L132.01 36.2188C132.169 35.2554 132.454 34.4877 132.868 33.9158C133.294 33.3338 133.809 32.9265 134.415 32.6938C135.021 32.4612 135.662 32.3804 136.338 32.4515C136.992 32.5202 137.57 32.7064 138.074 33.01C138.589 33.3149 139.016 33.7016 139.354 34.1702C139.692 34.6387 139.933 35.1655 140.077 35.7504C140.22 36.3352 140.259 36.9433 140.192 37.5745L140.16 37.8788C140.094 38.51 139.924 39.0961 139.651 39.6372C139.378 40.1782 139.021 40.6422 138.582 41.029C138.153 41.417 137.656 41.7066 137.089 41.8977C136.533 42.09 135.934 42.1524 135.291 42.0849C134.649 42.0173 134.049 41.8119 133.493 41.4685C132.936 41.1251 132.5 40.6177 132.183 39.9462C131.866 39.2747 131.733 38.4232 131.785 37.3916L132.386 38.8223L131.755 44.8243L130.132 44.6537ZM135.187 40.638C135.795 40.702 136.34 40.6168 136.82 40.3824C137.302 40.1367 137.694 39.7733 137.995 39.2922C138.297 38.7998 138.484 38.221 138.553 37.556C138.624 36.8798 138.563 36.275 138.368 35.7417C138.173 35.2085 137.865 34.7772 137.444 34.4481C137.024 34.1076 136.51 33.9054 135.901 33.8415C135.36 33.7846 134.846 33.8559 134.357 34.0553C133.87 34.2434 133.462 34.5537 133.131 34.9862C132.813 35.4086 132.621 35.9411 132.553 36.5835L132.471 37.3612C132.406 37.9812 132.492 38.5257 132.727 38.9949C132.963 39.4641 133.299 39.8413 133.736 40.1266C134.174 40.4119 134.657 40.5823 135.187 40.638Z" fill="#E69B0C"/>
</g>
<g filter="url(#filter1_d_20916_2055)">
<path d="M10.2327 50.4395L16.48 48.7222C20.0833 47.7317 21.8849 47.2364 21.9405 46.1563C21.996 45.0761 20.2418 44.3938 16.7334 43.0291C15.6889 42.6228 15.1665 42.4196 14.8329 42.0076C14.4992 41.5956 14.4091 41.0424 14.2288 39.9361C13.6234 36.2208 13.3207 34.3631 12.2526 34.1928C11.1845 34.0225 10.3255 35.6818 8.60746 39.0004L5.62876 44.7541C3.83005 48.2286 2.93069 49.9658 3.75234 50.9804C4.574 51.9951 6.46025 51.4766 10.2327 50.4395Z" fill="#E69B0C"/>
<path d="M10.2327 50.4395L16.48 48.7222C20.0833 47.7317 21.8849 47.2364 21.9405 46.1563C21.996 45.0761 20.2418 44.3938 16.7334 43.0291C15.6889 42.6228 15.1665 42.4196 14.8329 42.0076C14.4992 41.5956 14.4091 41.0424 14.2288 39.9361C13.6234 36.2208 13.3207 34.3631 12.2526 34.1928C11.1845 34.0225 10.3255 35.6818 8.60746 39.0004L5.62876 44.7541C3.83005 48.2286 2.93069 49.9658 3.75234 50.9804C4.574 51.9951 6.46025 51.4766 10.2327 50.4395Z" stroke="white" stroke-width="0.6" stroke-linejoin="round"/>
</g>
<defs>
<filter id="filter0_d_20916_2055" x="14.9781" y="-0.22377" width="145.854" height="63.9748" filterUnits="userSpaceOnUse" color-interpolation-filters="sRGB">
<feFlood flood-opacity="0" result="BackgroundImageFix"/>
<feColorMatrix in="SourceAlpha" type="matrix" values="0 0 0 0 0 0 0 0 0 0 0 0 0 0 0 0 0 0 127 0" result="hardAlpha"/>
<feOffset dy="1"/>
<feGaussianBlur stdDeviation="1.5"/>
<feComposite in2="hardAlpha" operator="out"/>
<feColorMatrix type="matrix" values="0 0 0 0 0 0 0 0 0 0 0 0 0 0 0 0 0 0 0.04 0"/>
<feBlend mode="normal" in2="BackgroundImageFix" result="effect1_dropShadow_20916_2055"/>
<feBlend mode="normal" in="SourceGraphic" in2="effect1_dropShadow_20916_2055" result="shape"/>
</filter>
<filter id="filter1_d_20916_2055" x="1.14587" y="32.8809" width="23.0959" height="21.9477" filterUnits="userSpaceOnUse" color-interpolation-filters="sRGB">
<feFlood flood-opacity="0" result="BackgroundImageFix"/>
<feColorMatrix in="SourceAlpha" type="matrix" values="0 0 0 0 0 0 0 0 0 0 0 0 0 0 0 0 0 0 127 0" result="hardAlpha"/>
<feOffset dy="1"/>
<feGaussianBlur stdDeviation="1"/>
<feComposite in2="hardAlpha" operator="out"/>
<feColorMatrix type="matrix" values="0 0 0 0 0 0 0 0 0 0 0 0 0 0 0 0 0 0 0.06 0"/>
<feBlend mode="normal" in2="BackgroundImageFix" result="effect1_dropShadow_20916_2055"/>
<feBlend mode="normal" in="SourceGraphic" in2="effect1_dropShadow_20916_2055" result="shape"/>
</filter>
</defs>
</svg>
