<svg width="151" height="72" viewBox="0 0 151 72" fill="none" xmlns="http://www.w3.org/2000/svg">
<g filter="url(#filter0_d_20916_2045)">
<rect width="128" height="44" rx="22" transform="matrix(-0.994522 0.104528 0.104528 0.994522 128.121 1.74142)" fill="#E7F7FF"/>
<rect x="-0.266998" y="0.329715" width="127.4" height="43.4" rx="21.7" transform="matrix(-0.994522 0.104528 0.104528 0.994522 127.554 1.77114)" stroke="#2BB6FF" stroke-width="0.6"/>
<path d="M49.3573 38.1741L44.7294 26.1822L46.437 26.0027L50.5115 36.9588L49.6743 36.6365L51.6862 36.4251L50.8497 36.9233L52.0696 25.9235L53.625 25.76L52.1807 37.8773L49.3573 38.1741ZM56.7794 37.394L52.5768 25.8702L54.1829 25.7014L57.9675 36.1751L57.0795 35.8582L59.1083 35.645L58.2887 36.1414L59.692 24.6095L61.3489 24.4354L59.6197 37.0955L56.7794 37.394ZM68.1652 36.505C67.3763 36.5879 66.6801 36.5243 66.0769 36.3142C65.4736 36.1041 64.9685 35.7983 64.5616 35.3966C64.1536 34.9837 63.8304 34.5105 63.592 33.9772C63.3648 33.4427 63.2211 32.888 63.1607 32.3131L63.1287 32.0088C63.0671 31.4227 63.0918 30.8446 63.2028 30.2746C63.3251 29.7033 63.5435 29.179 63.858 28.7015C64.1713 28.2127 64.5904 27.8097 65.1155 27.4924C65.6506 27.1627 66.2957 26.9581 67.0509 26.8787C68.0315 26.7757 68.8599 26.9051 69.5361 27.2671C70.2224 27.6166 70.7527 28.1079 71.1269 28.7409C71.5124 29.3727 71.7448 30.0662 71.8242 30.8214L71.9006 31.5484L63.8867 32.3907L63.7588 31.1734L70.5892 30.4555L70.2865 31.1539C70.219 30.5115 70.0595 29.9699 69.8081 29.5291C69.5554 29.077 69.2126 28.7427 68.7796 28.5261C68.3466 28.3095 67.8201 28.2338 67.2002 28.2989C66.5577 28.3664 66.0377 28.5692 65.6402 28.9073C65.254 29.2442 64.9805 29.6775 64.8196 30.2072C64.67 30.7357 64.6302 31.3325 64.7001 31.9975C64.7676 32.64 64.9301 33.2098 65.1875 33.7069C65.4549 34.1916 65.8244 34.563 66.296 34.8212C66.7664 35.068 67.3397 35.1559 68.016 35.0848C68.7261 35.0102 69.2843 34.792 69.6907 34.4302C70.1084 34.0672 70.3404 33.6724 70.3867 33.2459L71.9084 33.086C71.8495 33.7189 71.6578 34.2804 71.3333 34.7703C71.0087 35.2603 70.5771 35.6532 70.0384 35.9491C69.4997 36.2451 68.8753 36.4304 68.1652 36.505ZM79.4473 35.3192C78.7034 35.3974 78.0212 35.3039 77.4007 35.0386C76.7915 34.7721 76.2853 34.3467 75.882 33.7623C75.4775 33.1667 75.2122 32.4311 75.086 31.5555L75.5255 31.5093L75.9325 35.3809L74.6476 35.516L73.3504 23.174L74.9734 23.0034L75.6042 29.0053L75.1591 30.2999C75.1012 29.3146 75.2143 28.4936 75.4985 27.837C75.7828 27.1803 76.1913 26.6759 76.7241 26.3236C77.2669 25.9588 77.8821 25.7403 78.5697 25.6681C79.2121 25.6005 79.8113 25.6629 80.3671 25.8552C80.9217 26.0362 81.4131 26.3208 81.8414 26.7088C82.2684 27.0855 82.613 27.545 82.8751 28.0873C83.136 28.6182 83.3003 29.205 83.3678 29.8474L83.3998 30.1517C83.4673 30.7942 83.4236 31.4085 83.2687 31.9945C83.125 32.5794 82.8791 33.1124 82.5308 33.5934C82.1813 34.0632 81.7434 34.4511 81.2172 34.7571C80.7023 35.0619 80.1123 35.2493 79.4473 35.3192ZM79.112 33.9186C79.7207 33.8546 80.235 33.6524 80.6551 33.312C81.0751 32.9715 81.3825 32.5347 81.5771 32.0014C81.7706 31.4569 81.8318 30.8464 81.7607 30.1702C81.6897 29.4939 81.4978 28.9158 81.1853 28.4358C80.884 27.9547 80.4937 27.6025 80.0145 27.3794C79.534 27.145 78.9951 27.0592 78.3977 27.122C77.8567 27.1789 77.3681 27.3556 76.9321 27.6521C76.4948 27.9374 76.1596 28.3259 75.9264 28.8176C75.7033 29.2969 75.6255 29.8578 75.693 30.5002L75.7747 31.2779C75.8399 31.8979 76.0365 32.4128 76.3644 32.8228C76.6924 33.2327 77.0999 33.5318 77.5869 33.7199C78.0739 33.908 78.5823 33.9743 79.112 33.9186ZM89.2912 34.2504C88.1077 34.3748 87.1624 34.2177 86.4554 33.7792C85.7596 33.3395 85.3543 32.6813 85.2393 31.8045L86.7609 31.6446C86.8202 31.9916 87.0299 32.3058 87.3899 32.587C87.76 32.8558 88.3452 32.9481 89.1455 32.864C89.8668 32.7882 90.4043 32.5893 90.7579 32.2672C91.1103 31.9339 91.2646 31.5587 91.2208 31.1416C91.1817 30.7697 91.0106 30.4971 90.7075 30.3238C90.4032 30.1393 89.9319 30.0464 89.2936 30.0451L88.3024 30.0467C87.4363 30.0466 86.7108 29.8664 86.1259 29.5062C85.5399 29.1348 85.2066 28.5659 85.1261 27.7994C85.0656 27.2246 85.1606 26.7189 85.411 26.2823C85.6603 25.8345 86.0329 25.4762 86.5288 25.2076C87.0236 24.9277 87.6091 24.7522 88.2854 24.6811C89.2998 24.5745 90.1463 24.7134 90.8249 25.0979C91.5035 25.4824 91.9008 26.1187 92.017 27.0068L90.4953 27.1667C90.4462 26.8072 90.2451 26.5207 89.8922 26.307C89.5493 26.081 89.0623 26.0011 88.4311 26.0675C87.7999 26.1338 87.3345 26.3138 87.0349 26.6074C86.7353 26.9009 86.6062 27.245 86.6477 27.6395C86.6832 27.9776 86.8244 28.2363 87.0711 28.4155C87.3291 28.5935 87.726 28.6828 88.2616 28.6835L89.2529 28.6819C90.2329 28.6814 91.039 28.8702 91.6714 29.2482C92.3025 29.6149 92.6595 30.1927 92.7424 30.9817C92.8017 31.5453 92.6909 32.064 92.4103 32.538C92.1397 32.9994 91.7357 33.3838 91.1982 33.691C90.6595 33.9869 90.0238 34.1734 89.2912 34.2504ZM95.808 33.2919L94.859 24.2637L96.4821 24.0931L97.431 33.1213L95.808 33.2919ZM93.6077 25.6943L93.4727 24.4094L96.4821 24.0931L96.6172 25.378L93.6077 25.6943ZM95.1627 22.7617C94.802 22.7996 94.5215 22.7322 94.321 22.5596C94.1318 22.3857 94.0218 22.1523 93.991 21.8592C93.9602 21.5662 94.0192 21.315 94.1682 21.1056C94.3284 20.895 94.5888 20.7708 94.9495 20.7329C95.3102 20.695 95.5851 20.7629 95.7743 20.9368C95.9748 21.1094 96.0904 21.3423 96.1212 21.6353C96.152 21.9284 96.0873 22.1802 95.9271 22.3908C95.7782 22.6001 95.5234 22.7238 95.1627 22.7617ZM104.097 32.5233C103.42 32.5944 102.824 32.5602 102.308 32.4207C101.803 32.2801 101.391 31.9929 101.072 31.5592C100.763 31.113 100.567 30.4898 100.483 29.6896L99.5691 20.9994L101.125 20.836L102.059 29.729C102.11 30.2136 102.28 30.5776 102.567 30.8209C102.865 31.0517 103.256 31.1416 103.741 31.0907L105.33 30.9236L105.483 32.3776L104.097 32.5233ZM98.4295 25.1191L98.3016 23.9018L104.523 23.2479L104.651 24.4652L98.4295 25.1191ZM111.572 31.9428C110.783 32.0257 110.087 31.9621 109.483 31.752C108.88 31.542 108.375 31.2361 107.968 30.8344C107.56 30.4215 107.237 29.9483 106.998 29.415C106.771 28.8805 106.627 28.3258 106.567 27.751L106.535 27.4466C106.473 26.8605 106.498 26.2824 106.609 25.7124C106.732 25.1411 106.95 24.6168 107.264 24.1393C107.578 23.6505 107.997 23.2475 108.522 22.9302C109.057 22.6005 109.702 22.3959 110.457 22.3165C111.438 22.2135 112.266 22.3429 112.943 22.7049C113.629 23.0544 114.159 23.5457 114.533 24.1787C114.919 24.8105 115.151 25.504 115.231 26.2592L115.307 26.9862L107.293 27.8285L107.165 26.6112L113.996 25.8933L113.693 26.5917C113.625 25.9493 113.466 25.4077 113.214 24.9669C112.962 24.5148 112.619 24.1805 112.186 23.9639C111.753 23.7473 111.227 23.6716 110.607 23.7367C109.964 23.8042 109.444 24.007 109.047 24.3451C108.66 24.682 108.387 25.1153 108.226 25.645C108.076 26.1735 108.037 26.7703 108.107 27.4353C108.174 28.0778 108.336 28.6476 108.594 29.1447C108.861 29.6294 109.231 30.0008 109.702 30.259C110.173 30.5058 110.746 30.5937 111.422 30.5226C112.132 30.448 112.691 30.2298 113.097 29.868C113.515 29.505 113.747 29.1102 113.793 28.6837L115.315 28.5238C115.256 29.1568 115.064 29.7182 114.74 30.2081C114.415 30.6981 113.984 31.091 113.445 31.387C112.906 31.6829 112.282 31.8682 111.572 31.9428Z" fill="#2BB6FF"/>
<path d="M19.1175 35.3194C18.7274 31.6079 18.5324 29.7521 19.5642 28.4779C20.596 27.2037 22.4518 27.0087 26.1633 26.6186C29.8748 26.2285 31.7306 26.0334 33.0048 27.0653C34.279 28.0971 34.474 29.9528 34.8641 33.6644C35.2542 37.3758 35.4493 39.2316 34.4175 40.5059C33.3856 41.78 31.5298 41.9751 27.8183 42.3652C24.1068 42.7553 22.2511 42.9503 20.9769 41.9185C19.7027 40.8866 19.5076 39.0309 19.1175 35.3194Z" stroke="#2BB6FF" stroke-width="1.25"/>
<path d="M18.8562 32.8331L34.6028 31.1781" stroke="#2BB6FF" stroke-width="1.25" stroke-linejoin="round"/>
<path d="M22.3243 29.9548L22.3318 29.954" stroke="#2BB6FF" stroke-width="1.66667" stroke-linecap="round" stroke-linejoin="round"/>
<path d="M25.6394 29.6064L25.6469 29.6056" stroke="#2BB6FF" stroke-width="1.66667" stroke-linecap="round" stroke-linejoin="round"/>
</g>
<g filter="url(#filter1_d_20916_2045)">
<path d="M140.423 53.1812L134.176 51.4638C130.572 50.4733 128.771 49.9781 128.715 48.898C128.66 47.8177 130.414 47.1354 133.922 45.7707C134.967 45.3644 135.489 45.1612 135.823 44.7493C136.157 44.3372 136.247 43.7841 136.427 42.6778C137.032 38.9625 137.335 37.1047 138.403 36.9345C139.471 36.7642 140.33 38.4235 142.048 41.7421L145.027 47.4958C146.826 50.9702 147.725 52.7074 146.903 53.7221C146.082 54.7367 144.196 54.2182 140.423 53.1812Z" fill="#2BB6FF"/>
<path d="M140.423 53.1812L134.176 51.4638C130.572 50.4733 128.771 49.9781 128.715 48.898C128.66 47.8177 130.414 47.1354 133.922 45.7707C134.967 45.3644 135.489 45.1612 135.823 44.7493C136.157 44.3372 136.247 43.7841 136.427 42.6778C137.032 38.9625 137.335 37.1047 138.403 36.9345C139.471 36.7642 140.33 38.4235 142.048 41.7421L145.027 47.4958C146.826 50.9702 147.725 52.7074 146.903 53.7221C146.082 54.7367 144.196 54.2182 140.423 53.1812Z" stroke="white" stroke-width="0.6" stroke-linejoin="round"/>
</g>
<defs>
<filter id="filter0_d_20916_2045" x="-2.17733" y="-0.258575" width="137.898" height="63.1386" filterUnits="userSpaceOnUse" color-interpolation-filters="sRGB">
<feFlood flood-opacity="0" result="BackgroundImageFix"/>
<feColorMatrix in="SourceAlpha" type="matrix" values="0 0 0 0 0 0 0 0 0 0 0 0 0 0 0 0 0 0 127 0" result="hardAlpha"/>
<feOffset dy="1"/>
<feGaussianBlur stdDeviation="1.5"/>
<feComposite in2="hardAlpha" operator="out"/>
<feColorMatrix type="matrix" values="0 0 0 0 0 0 0 0 0 0 0 0 0 0 0 0 0 0 0.04 0"/>
<feBlend mode="normal" in2="BackgroundImageFix" result="effect1_dropShadow_20916_2045"/>
<feBlend mode="normal" in="SourceGraphic" in2="effect1_dropShadow_20916_2045" result="shape"/>
</filter>
<filter id="filter1_d_20916_2045" x="126.414" y="35.6225" width="23.0959" height="21.9477" filterUnits="userSpaceOnUse" color-interpolation-filters="sRGB">
<feFlood flood-opacity="0" result="BackgroundImageFix"/>
<feColorMatrix in="SourceAlpha" type="matrix" values="0 0 0 0 0 0 0 0 0 0 0 0 0 0 0 0 0 0 127 0" result="hardAlpha"/>
<feOffset dy="1"/>
<feGaussianBlur stdDeviation="1"/>
<feComposite in2="hardAlpha" operator="out"/>
<feColorMatrix type="matrix" values="0 0 0 0 0 0 0 0 0 0 0 0 0 0 0 0 0 0 0.06 0"/>
<feBlend mode="normal" in2="BackgroundImageFix" result="effect1_dropShadow_20916_2045"/>
<feBlend mode="normal" in="SourceGraphic" in2="effect1_dropShadow_20916_2045" result="shape"/>
</filter>
</defs>
</svg>
